/* XPM */
static char * Exit_xpm[] = {
"32 32 10 1",
" 	c #23674E",
".	c #24523B",
"+	c #14A02E",
"@	c #1A7A3E",
"#	c #E3E6FF",
"$	c #D6F264",
"%	c #000000",
"&	c #FFFFFF",
"*	c #639BFF",
"=	c #5FCDE4",
"                                ",
"                                ",
"         ...             ...    ",
"     .. .++.             .++.   ",
"    .++.++@.     #       .@++.  ",
"    .@+.+@.     #$#    +  .@+.  ",
"       .%%%%%    # %%%%%   .+   ",
"       %&&&&*%%  %%****=%       ",
"    ++%&*****==%%========%      ",
"     @%**===============*%      ",
"      %*==***===========*%#     ",
"  #   %*==***===========*%$#    ",
" #$#  %*==***===========*%#     ",
"  #   %*===============**%      ",
"      %*====*==========*&%      ",
"     +%**==============*&%      ",
"    +@ %**=====*======**%@      ",
"    @  %****=====*==****%     + ",
"        %*****====**==&%     +@ ",
"         %&&=******=&&%      @  ",
"   ...    %%&==**==&%%          ",
"   .++.   %%&==**==&%%  ...     ",
"   .@++.    %&&==&&%.. .++.     ",
"    .@+.     %%&&%%.++.++@.     ",
"     .+        %%# .@+.+@. +    ",
"                #     .+   @+   ",
"   ++   +@         +        @   ",
"    @+ +@         +@            ",
"            ..    @         #   ",
"           .++.            #$#  ",
"           .@@+.            #   ",
"                                "};
