/* XPM */
static char * HeartOpen_xpm[] = {
"32 32 5 1",
" 	c None",
".	c #000000",
"+	c #FFFFFF",
"@	c #639BFF",
"#	c #5FCDE4",
"                                ",
"                                ",
"                                ",
"                                ",
"                                ",
"                                ",
"                                ",
"                                ",
"         ....      ....         ",
"        .+++@..  ..@@@#.        ",
"       .+@@@@##..#######.       ",
"       .@@#############@.       ",
"       .@##@@##########@.       ",
"       .@##@@##########@.       ",
"       .@#############@@.       ",
"       .@###@#########@+.       ",
"       .@@############@+.       ",
"        .@@####@#####@@.        ",
"        .@@@#####@##@@@.        ",
"         .@@@@####@@#+.         ",
"          .+#@@@@@@#+.          ",
"           .+##@@##+.           ",
"            .++##++.            ",
"             ..++..             ",
"               ..               ",
"                                ",
"                                ",
"                                ",
"                                ",
"                                ",
"                                ",
"                                "};
