/* XPM */
static char * Player_xpm[] = {
"32 32 17 1",
" 	c #23674E",
".	c #24523B",
"+	c #14A02E",
"@	c #1A7A3E",
"#	c #E3E6FF",
"$	c #D6F264",
"%	c #000000",
"&	c #5B6EE1",
"*	c #639BFF",
"=	c #D9A066",
"-	c #EEC39A",
";	c #663931",
">	c #8F563B",
",	c #222034",
"'	c #45283C",
")	c #3F3F74",
"!	c #306082",
"                                ",
"                                ",
"         ...             ...    ",
"     .. .++.             .++.   ",
"    .++.++@.     #       .@++.  ",
"    .@+.+@.     #$#    +  .@+.  ",
"       .+    %%%%%%%% +@   .+   ",
"            %&&&***&&%@         ",
"    ++   +@%&********&%         ",
"     @+ +@%***********%         ",
"          %***********%   #     ",
"  #       %***********%  #$#    ",
" #$#      %******&&&&*%   #     ",
"  #       %**&&&=====%%         ",
"          %*&===-----%%         ",
"     +  %%;;;;;;=--%%*%         ",
"    +@ %;;;;>>>>;;;%%%  +@      ",
"    @  %;;;;>>>>;;;%%% +@     + ",
"       %>>;;;>>>>>;;;%       +@ ",
"       %>>>;=-->>>;===%      @  ",
"   ... %,,>>=-->>>>===%         ",
"   .++%,,,'''''''''''%  ...     ",
"   .@+%,,,%))))!)))!!% .++.     ",
"    .@%,,,%))!!!!))!!%.++@.     ",
"     .%,,,%))!!!!))!!%.+@. +    ",
"       %%%%)!%%%%%!!!%.+   @+   ",
"   ++   +@%!!%%% %!!!%      @   ",
"    @+ +@         +@            ",
"            ..    @         #   ",
"           .++.            #$#  ",
"           .@@+.            #   ",
"                                "};
