/* XPM */
static char * Strawberry_xpm[] = {
"32 32 14 1",
" 	c #23674E",
".	c #24523B",
"+	c #14A02E",
"@	c #1A7A3E",
"#	c #E3E6FF",
"$	c #D6F264",
"%	c #000000",
"&	c #6ABE30",
"*	c #8F974A",
"=	c #222034",
"-	c #99E550",
";	c #AC3232",
">	c #D95763",
",	c #DF7126",
"                                ",
"                                ",
"         ...             ...    ",
"     .. .++.             .++.   ",
"    .++.++@.     #       .@++.  ",
"    .@+.+@.     #$#    +  .@+.  ",
"       .+        #    +@   .+   ",
"                      @         ",
"    ++   +@      %%             ",
"     @+ +@  %%%%%&&%            ",
"           %&&%%%**&%     #     ",
"  #       %*%=---&=%*%   #$#    ",
" #$#      %*%=---&=%*%    #     ",
"  #        %=;====;=%           ",
"          %;>>>>>;>>;%          ",
"     +    %,>;;;;>>>,%          ",
"    +@    %,>;;;;>>>,%  +@      ",
"    @     %;,>>>>>>>;% +@     + ",
"         #%>;;>>>>;;>%       +@ ",
"          #%>;;;;;;>%        @  ",
"   ...     %>;;;;;;>%           ",
"   .++.     %>;;;;>%    ...     ",
"   .@++.     %>>>>% .. .++.     ",
"    .@+.      %%%% .++.++@.     ",
"     .+        #$# .@+.+@. +    ",
"                #     .+   @+   ",
"   ++   +@         +        @   ",
"    @+ +@         +@            ",
"            ..    @         #   ",
"           .++.            #$#  ",
"           .@@+.            #   ",
"                                "};
